<svg width="69" height="38" viewBox="0 0 69 38" fill="none" xmlns="http://www.w3.org/2000/svg">
<path d="M34.5 21.375C39.1862 21.375 43.3262 22.61 46.69 24.225C49.795 25.745 51.75 29.165 51.75 32.87V38H17.25V32.9017C17.25 29.165 19.205 25.745 22.31 24.2567C25.6738 22.61 29.8138 21.375 34.5 21.375ZM11.5 22.1667C14.6625 22.1667 17.25 19.3167 17.25 15.8333C17.25 12.35 14.6625 9.5 11.5 9.5C8.3375 9.5 5.75 12.35 5.75 15.8333C5.75 19.3167 8.3375 22.1667 11.5 22.1667ZM14.7488 25.65C13.685 25.46 12.6212 25.3333 11.5 25.3333C8.65375 25.3333 5.95125 25.9983 3.5075 27.17C1.38 28.1833 0 30.4633 0 33.0283V38H12.9375V32.9017C12.9375 30.2733 13.5988 27.8033 14.7488 25.65ZM57.5 22.1667C60.6625 22.1667 63.25 19.3167 63.25 15.8333C63.25 12.35 60.6625 9.5 57.5 9.5C54.3375 9.5 51.75 12.35 51.75 15.8333C51.75 19.3167 54.3375 22.1667 57.5 22.1667ZM69 33.0283C69 30.4633 67.62 28.1833 65.4925 27.17C63.0488 25.9983 60.3463 25.3333 57.5 25.3333C56.3788 25.3333 55.315 25.46 54.2513 25.65C55.4013 27.8033 56.0625 30.2733 56.0625 32.9017V38H69V33.0283ZM34.5 0C39.2725 0 43.125 4.24333 43.125 9.5C43.125 14.7567 39.2725 19 34.5 19C29.7275 19 25.875 14.7567 25.875 9.5C25.875 4.24333 29.7275 0 34.5 0Z" fill="white"/>
</svg>
