<svg width="34" height="39" viewBox="0 0 34 39" fill="none" xmlns="http://www.w3.org/2000/svg">
<path d="M16.6252 7.8C18.9208 7.8 20.7817 6.05391 20.7817 3.9C20.7817 1.74609 18.9208 0 16.6252 0C14.3297 0 12.4688 1.74609 12.4688 3.9C12.4688 6.05391 14.3297 7.8 16.6252 7.8Z" fill="white"/>
<path d="M24.7103 11.9145C23.8998 11.154 22.5073 9.75 19.8056 9.75C19.3692 9.75 16.8545 9.75 14.5269 9.75C8.81174 9.7305 4.15648 5.3625 4.15648 0H0C0 6.162 4.38509 11.388 10.3912 13.0845V39H14.5477V27.3H18.7042V39H22.8606V15.6975L31.0697 23.4L34 20.6505L24.7103 11.9145Z" fill="white"/>
</svg>
