<svg width="39" height="39" viewBox="0 0 39 39" fill="none" xmlns="http://www.w3.org/2000/svg">
<path d="M39 39L14 29.3571L30.0714 12L39 39Z" fill="white"/>
<path d="M16.1053 21L6.11321 10.4988C5.23734 9.57833 3.82523 9.57833 2.94936 10.4988L1.89474 11.6072L0 9.6159L1.05462 8.50755C2.96723 6.49748 6.09534 6.49748 8.00795 8.50755L18 19.0087L16.1053 21Z" fill="white"/>
<path d="M24.0377 10.071L25 11.1183L23.2712 13L22.3089 11.9527C20.5637 10.0533 20.5637 6.94675 22.3089 5.04734L23.2712 4L25 5.89941L24.0377 6.94675C23.2548 7.79882 23.2548 9.21894 24.0377 10.071Z" fill="white"/>
<path d="M12.0846 19.6177L15 22.8229L13.0564 24.9597L10.141 21.7545C9.24259 20.7667 7.79408 20.7667 6.89563 21.7545L3.94358 25L2 22.8632L4.95204 19.6177C6.9323 17.4608 10.1227 17.4608 12.0846 19.6177Z" fill="white"/>
<path d="M15.4159 8.28445L22 15.0132L20.0559 17L13.4718 10.2712C11.5094 8.26571 11.5094 4.98567 13.4718 2.98015L16.3879 0L18.332 1.98677L15.4159 4.96692C14.5355 5.88534 14.5355 7.38479 15.4159 8.28445Z" fill="white"/>
</svg>
