<svg width="53" height="44" viewBox="0 0 53 44" fill="none" xmlns="http://www.w3.org/2000/svg">
<path d="M36.5 8C38.9853 8 41 6.20914 41 4C41 1.79086 38.9853 0 36.5 0C34.0147 0 32 1.79086 32 4C32 6.20914 34.0147 8 36.5 8Z" fill="white"/>
<path d="M53 23.4242V13.7535L41.7407 9.35032C39.578 8.50671 37.0809 9.22687 35.8324 11.0787L33.6028 14.3708C32.109 16.7988 29.3443 18.6094 26 19.1444L26.1338 19.2679C27.6722 20.6876 29.5227 21.4695 31.6185 21.6752C33.4021 20.8111 35.0074 19.6588 36.2783 18.3008L37.616 24.4735L35.0297 26.7369L32.9339 28.5681V30.1319V44H37.3931V31.6545L42.0751 27.5393L46.0884 44H50.7704L45.91 21.3666L44.5277 14.9881L48.5409 16.4284V23.4242H53Z" fill="white"/>
<path d="M23.0199 16.2594C23.516 16.596 24.0796 16.798 24.6433 16.9102C24.9364 16.9551 25.2069 17 25.5 17C25.7931 17 26.0862 16.9776 26.3567 16.9102C26.6498 16.8653 26.9204 16.7756 27.1909 16.6633C27.7321 16.4389 28.2506 16.1247 28.679 15.6758C29.7837 14.5761 30.1896 13.0499 29.919 11.6359C29.7612 10.8055 29.3554 9.97506 28.679 9.32419C28.2506 8.89776 27.7321 8.5611 27.1909 8.33666C26.9204 8.22444 26.6498 8.13466 26.3567 8.08978C26.0636 8.04489 25.7931 8 25.5 8C25.2294 8 24.9814 8.02244 24.7109 8.06733C24.3952 8.11222 24.0796 8.202 23.7865 8.31422C23.2679 8.5611 22.7494 8.89776 22.321 9.32419C21.6446 9.97506 21.2388 10.8055 21.081 11.6359C20.8104 13.0499 21.2163 14.5761 22.321 15.6758C22.5239 15.9002 22.7719 16.0798 23.0199 16.2594Z" fill="white"/>
<path d="M24.7334 21.1526L20.3128 17.1583C20.0918 16.9586 19.8707 16.7989 19.6276 16.6391C19.1413 16.3595 18.5887 16.1598 18.0362 16.0799C17.7488 16.02 17.4836 16 17.1963 16C16.069 16 14.9417 16.3994 14.0797 17.1783L6.69725 23.8488C5.79103 24.6676 5.32686 25.806 5.41527 26.9244C5.41527 27.2839 5.50368 27.6633 5.65841 28.0228L8.02344 33.9144L0 41.1641L3.11654 44L12.4883 35.5321V31.0984L15.3617 33.515V43.7603H19.7823V31.7775L15.0965 27.5435L20.3128 22.8302L21.8821 24.2482C24.7334 26.7646 28.4468 28.3224 33 28.3224L32.6906 24.1883C29.3751 24.1484 26.7227 22.9501 24.7334 21.1526Z" fill="white"/>
</svg>
