<svg width="49" height="30" viewBox="0 0 49 30" fill="none" xmlns="http://www.w3.org/2000/svg">
<path d="M47.9907 4.92046C47.4257 3.14634 45.7708 1.74752 43.672 1.26987C39.8376 0.382812 24.4999 0.382812 24.4999 0.382812C24.4999 0.382812 9.16224 0.382812 5.32782 1.23575C3.26934 1.7134 1.57413 3.14634 1.00906 4.92046C0 8.16164 0 14.8828 0 14.8828C0 14.8828 0 21.6381 1.00906 24.8452C1.57413 26.6193 3.22898 28.0181 5.32782 28.4958C9.2026 29.3828 24.4999 29.3828 24.4999 29.3828C24.4999 29.3828 39.8376 29.3828 43.672 28.5299C45.7708 28.0522 47.4257 26.6534 47.9907 24.8793C48.9998 21.6381 48.9998 14.9169 48.9998 14.9169C48.9998 14.9169 49.0402 8.16164 47.9907 4.92046ZM19.6161 21.0922V8.6734L32.3705 14.8828L19.6161 21.0922Z" fill="#E30909"/>
</svg>
